@startuml
'https://plantuml.com/class-diagram

class PsycScale{
    Integer scaleId;
    String scaleName;
    Integer scaleType;
    Date createDate;
    Date updateDate;
}
abstract AbstractCollection
interface List
interface Collection

List <|-- AbstractList
Collection <|-- AbstractCollection

Collection <|- List
AbstractCollection <|- AbstractList
AbstractList <|-- ArrayList

class ArrayList {
Object[] elementData
size()
}

enum TimeUnit {
DAYS
HOURS
MINUTES
}

@enduml
